<svg xmlns="http://www.w3.org/2000/svg" width="24" height="24" viewBox="0 0 9 9" fill="none">
  <path d="M4.92197 4.49989V5.90614C4.92197 6.01803 4.87752 6.12533 4.7984 6.20445C4.71928 6.28357 4.61198 6.32802 4.50009 6.32802C4.3882 6.32802 4.2809 6.28357 4.20178 6.20445C4.12266 6.12533 4.07822 6.01803 4.07822 5.90614V4.49989C4.07822 4.388 4.12266 4.2807 4.20178 4.20158C4.2809 4.12246 4.3882 4.07802 4.50009 4.07802C4.61198 4.07802 4.71928 4.12246 4.7984 4.20158C4.87752 4.2807 4.92197 4.388 4.92197 4.49989ZM5.90845 4.45805L5.76783 5.8643C5.75674 5.97563 5.79033 6.0868 5.8612 6.17337C5.93207 6.25993 6.03443 6.3148 6.14576 6.32591C6.15982 6.32591 6.17423 6.32802 6.18794 6.32802C6.29252 6.32792 6.39334 6.28899 6.47084 6.21876C6.54833 6.14854 6.59699 6.05204 6.60736 5.94798L6.74798 4.54173C6.75768 4.43113 6.72339 4.32117 6.65255 4.23569C6.58171 4.1502 6.48003 4.09609 6.36956 4.08508C6.25908 4.07407 6.14872 4.10705 6.06241 4.17687C5.97609 4.24669 5.92077 4.34772 5.90845 4.45805ZM3.09173 4.45805C3.07941 4.34772 3.02409 4.24669 2.93778 4.17687C2.85146 4.10705 2.7411 4.07407 2.63062 4.08508C2.52015 4.09609 2.41847 4.1502 2.34763 4.23569C2.27679 4.32117 2.2425 4.43113 2.2522 4.54173L2.39283 5.94798C2.4032 6.0521 2.45191 6.14865 2.52948 6.21888C2.60705 6.28911 2.70795 6.32801 2.81259 6.32802C2.8263 6.32802 2.84072 6.32802 2.85478 6.32591C2.9661 6.3148 3.06846 6.25993 3.13933 6.17337C3.21021 6.0868 3.2438 5.97563 3.23271 5.8643L3.09173 4.45805ZM8.57611 3.14954L8.0463 7.1222C8.02374 7.29151 7.94048 7.44689 7.81201 7.55946C7.68353 7.67203 7.51856 7.73414 7.34775 7.73427H1.65244C1.48219 7.73378 1.31786 7.67172 1.18979 7.55954C1.06172 7.44737 0.978552 7.29265 0.955638 7.12395L0.425833 3.1513C0.417595 3.09158 0.422249 3.0308 0.439483 2.97303C0.456716 2.91527 0.486128 2.86187 0.525737 2.81643C0.565347 2.77099 0.614234 2.73457 0.669106 2.70961C0.723979 2.68466 0.783561 2.67175 0.843841 2.67177H2.33974L4.18368 0.565906C4.22328 0.520664 4.27209 0.484407 4.32684 0.459567C4.38159 0.434726 4.44102 0.421875 4.50115 0.421875C4.56127 0.421875 4.6207 0.434726 4.67545 0.459567C4.7302 0.484407 4.77901 0.520664 4.81861 0.565906L6.66044 2.67177H8.15634C8.21645 2.67179 8.27586 2.68465 8.3306 2.7095C8.38533 2.73435 8.43412 2.77061 8.4737 2.81585C8.51328 2.86109 8.54274 2.91427 8.5601 2.97182C8.57745 3.02936 8.58231 3.08996 8.57435 3.14954H8.57611ZM3.46122 2.67177H5.53896L4.50009 1.48419L3.46122 2.67177ZM7.67435 3.51552H1.32583L1.77583 6.89052H7.22505L7.67435 3.51552Z" fill="white"></path>
</svg>
